{
  "accessors": [
    {
      "bufferView": 2,
      "componentType": 5126,
      "count": 28308,
      "max": [
        40.79248046875,
        25.191162109375,
        65.06954956054688
      ],
      "min": [
        -49.7415885925293,
        -19.162841796875,
        -72.17597961425781
      ],
      "type": "VEC3"
    },
    {
      "bufferView": 2,
      "byteOffset": 339696,
      "componentType": 5126,
      "count": 28308,
      "max": [
        0.9999845027923584,
        0.9997938275337219,
        0.999991774559021
      ],
      "min": [
        -0.9997383952140808,
        -0.9999787211418152,
        -0.9998357892036438
      ],
      "type": "VEC3"
    },
    {
      "bufferView": 1,
      "componentType": 5126,
      "count": 28308,
      "max": [
        0.997497022151947,
        0.997497022151947
      ],
      "min": [
        0.0009769999887794256,
        0.0009769999887794256
      ],
      "type": "VEC2"
    },
    {
      "bufferView": 0,
      "componentType": 5125,
      "count": 142296,
      "type": "SCALAR"
    }
  ],
  "asset": {
    "extras": {
      "author": "UVA3D (https://sketchfab.com/UVA3D)",
      "license": "CC-BY-4.0 (http://creativecommons.org/licenses/by/4.0/)",
      "source": "https://sketchfab.com/3d-models/harshitas-putto-3d-data-dd06817af29643ac81f4bd17f8176999",
      "title": "Harshita's Putto 3D Data"
    },
    "generator": "Sketchfab-10.92.0",
    "version": "2.0"
  },
  "bufferViews": [
    {
      "buffer": 0,
      "byteLength": 569184,
      "name": "floatBufferViews",
      "target": 34963
    },
    {
      "buffer": 0,
      "byteLength": 226464,
      "byteOffset": 569184,
      "byteStride": 8,
      "name": "floatBufferViews",
      "target": 34962
    },
    {
      "buffer": 0,
      "byteLength": 679392,
      "byteOffset": 795648,
      "byteStride": 12,
      "name": "floatBufferViews",
      "target": 34962
    }
  ],
  "buffers": [
    {
      "byteLength": 1475040,
      "uri": "scene.bin"
    }
  ],
  "images": [
    {
      "uri": "textures/Surface_merge_remesh_1_baseColor.jpeg"
    }
  ],
  "materials": [
    {
      "doubleSided": true,
      "emissiveTexture": {
        "index": 0
      },
      "name": "Surface_merge_remesh_1",
      "pbrMetallicRoughness": {
        "baseColorTexture": {
          "index": 0
        },
        "metallicFactor": 0.0
      }
    }
  ],
  "meshes": [
    {
      "name": "Object_0",
      "primitives": [
        {
          "attributes": {
            "NORMAL": 1,
            "POSITION": 0,
            "TEXCOORD_0": 2
          },
          "indices": 3,
          "material": 0,
          "mode": 4
        }
      ]
    }
  ],
  "nodes": [
    {
      "children": [
        1
      ],
      "matrix": [
        1.0,
        0.0,
        0.0,
        0.0,
        0.0,
        2.220446049250313e-16,
        -1.0,
        0.0,
        0.0,
        1.0,
        2.220446049250313e-16,
        0.0,
        0.0,
        0.0,
        0.0,
        1.0
      ],
      "name": "Sketchfab_model"
    },
    {
      "children": [
        2
      ],
      "name": "Putto data.obj.cleaner.materialmerger.gles"
    },
    {
      "mesh": 0,
      "name": "Object_2"
    }
  ],
  "samplers": [
    {
      "magFilter": 9729,
      "minFilter": 9987,
      "wrapS": 10497,
      "wrapT": 10497
    }
  ],
  "scene": 0,
  "scenes": [
    {
      "name": "Sketchfab_Scene",
      "nodes": [
        0
      ]
    }
  ],
  "textures": [
    {
      "sampler": 0,
      "source": 0
    }
  ]
}
