{
  "accessors": [
    {
      "bufferView": 2,
      "componentType": 5126,
      "count": 11418,
      "max": [
        122.82771301269531,
        117.49500274658203,
        116.57581329345703
      ],
      "min": [
        -117.42852783203125,
        -120.42598724365234,
        0.86621898412704468
      ],
      "type": "VEC3"
    },
    {
      "bufferView": 2,
      "byteOffset": 137016,
      "componentType": 5126,
      "count": 11418,
      "max": [
        0.99905574321746826,
        0.99912160634994507,
        0.99999082088470459
      ],
      "min": [
        -0.99610167741775513,
        -0.99922716617584229,
        -0.99998939037322998
      ],
      "type": "VEC3"
    },
    {
      "bufferView": 3,
      "componentType": 5126,
      "count": 11418,
      "max": [
        0.99991512298583984,
        0.99983835220336914,
        0.99770194292068481,
        1
      ],
      "min": [
        -0.99882972240447998,
        -0.99993699789047241,
        -0.99991631507873535,
        -1
      ],
      "type": "VEC4"
    },
    {
      "bufferView": 1,
      "componentType": 5126,
      "count": 11418,
      "max": [
        0.96905499696731567,
        0.99332499504089355
      ],
      "min": [
        0.0066749998368322849,
        0.0061710001900792122
      ],
      "type": "VEC2"
    },
    {
      "bufferView": 0,
      "componentType": 5125,
      "count": 61890,
      "max": [
        11417
      ],
      "min": [
        0
      ],
      "type": "SCALAR"
    }
  ],
  "asset": {
    "extras": {
      "author": "STAX3D (https://sketchfab.com/STAX3D-SIIM)",
      "license": "CC-BY-4.0 (http://creativecommons.org/licenses/by/4.0/)",
      "source": "https://sketchfab.com/3d-models/jar-santa-cruz-red-on-buff-01babbcc82044f7998fdb8be0c564245",
      "title": "Jar - Santa Cruz Red-on-buff"
    },
    "generator": "Sketchfab-4.37.1",
    "version": "2.0"
  },
  "bufferViews": [
    {
      "buffer": 0,
      "byteLength": 247560,
      "byteOffset": 0,
      "name": "floatBufferViews",
      "target": 34963
    },
    {
      "buffer": 0,
      "byteLength": 91344,
      "byteOffset": 247560,
      "byteStride": 8,
      "name": "floatBufferViews",
      "target": 34962
    },
    {
      "buffer": 0,
      "byteLength": 274032,
      "byteOffset": 338904,
      "byteStride": 12,
      "name": "floatBufferViews",
      "target": 34962
    },
    {
      "buffer": 0,
      "byteLength": 182688,
      "byteOffset": 612936,
      "byteStride": 16,
      "name": "floatBufferViews",
      "target": 34962
    }
  ],
  "buffers": [
    {
      "byteLength": 795624,
      "uri": "scene.bin"
    }
  ],
  "images": [
    {
      "uri": "textures/material_0_normal.png"
    },
    {
      "uri": "textures/material_0_baseColor.png"
    }
  ],
  "materials": [
    {
      "doubleSided": true,
      "name": "material_0",
      "normalTexture": {
        "index": 0,
        "scale": 1,
        "texCoord": 0
      },
      "pbrMetallicRoughness": {
        "baseColorFactor": [
          1,
          1,
          1,
          1
        ],
        "baseColorTexture": {
          "index": 1,
          "texCoord": 0
        },
        "metallicFactor": 0,
        "roughnessFactor": 0.75
      }
    }
  ],
  "meshes": [
    {
      "primitives": [
        {
          "attributes": {
            "NORMAL": 1,
            "POSITION": 0,
            "TANGENT": 2,
            "TEXCOORD_0": 3
          },
          "indices": 4,
          "material": 0,
          "mode": 4
        }
      ]
    }
  ],
  "nodes": [
    {
      "children": [
        1
      ],
      "name": "RootNode (gltf orientation matrix)",
      "rotation": [
        -0.70710678118654746,
        -0,
        -0,
        0.70710678118654757
      ]
    },
    {
      "children": [
        2
      ],
      "name": "RootNode (model correction matrix)"
    },
    {
      "children": [
        3
      ],
      "name": "Jar-SantaCruzRed-on-buff.obj.cleaner.materialmerger.gles"
    },
    {
      "mesh": 0,
      "name": ""
    }
  ],
  "samplers": [
    {
      "magFilter": 9729,
      "minFilter": 9987,
      "wrapS": 10497,
      "wrapT": 10497
    }
  ],
  "scene": 0,
  "scenes": [
    {
      "name": "OSG_Scene",
      "nodes": [
        0
      ]
    }
  ],
  "textures": [
    {
      "sampler": 0,
      "source": 0
    },
    {
      "sampler": 0,
      "source": 1
    }
  ]
}

